<svg xmlns="http://www.w3.org/2000/svg" version="1.1" xmlns:xlink="http://www.w3.org/1999/xlink" width="40" height="36"><svg width="40" height="36" viewBox="0 0 40 36" fill="none" xmlns="http://www.w3.org/2000/svg">
<path d="M26.4793 0.270752H5.2537C4.90533 0.270752 4.58207 0.452048 4.40042 0.749303L0.929775 6.42854C0.522559 7.09489 1.00213 7.94999 1.78306 7.94999H14.1502C14.8976 7.94999 15.3809 8.74006 15.0404 9.40546L7.14403 24.8394C6.80359 25.5048 7.28684 26.2948 8.03428 26.2948H13.4826C13.8498 26.2948 14.1875 26.0936 14.3622 25.7706L27.3588 1.74657C27.7193 1.08028 27.2368 0.270752 26.4793 0.270752Z" fill="#0376E8"></path>
<path d="M27.6439 6.60483L31.1789 0.498964C31.3577 0.190147 31.6875 0 32.0443 0H38.2658C39.0361 0 39.5172 0.834369 39.1312 1.50104L35.5963 7.6069C35.4175 7.91571 35.0877 8.10586 34.7308 8.10586H28.5093C27.739 8.10586 27.258 7.27149 27.6439 6.60483Z" fill="#00D0AC"></path>
<path d="M31.0696 9.94556H9.84403C9.49567 9.94556 9.17241 10.1269 8.99075 10.4241L5.52011 16.1033C5.11289 16.7697 5.59246 17.6248 6.37339 17.6248H18.7405C19.488 17.6248 19.9712 18.4149 19.6308 19.0803L11.7344 34.5142C11.3939 35.1796 11.8772 35.9696 12.6246 35.9696H18.073C18.4401 35.9696 18.7778 35.7684 18.9525 35.4455L31.9491 11.4214C32.3096 10.7551 31.8271 9.94556 31.0696 9.94556Z" fill="#091745"></path>
</svg><style>@media (prefers-color-scheme: light) { :root { filter: none; } }
@media (prefers-color-scheme: dark) { :root { filter: none; } }
</style></svg>